<?xml version="1.0" encoding="UTF-8" standalone="no"?>
<svg
   xmlns:dc="http://purl.org/dc/elements/1.1/"
   xmlns:cc="http://creativecommons.org/ns#"
   xmlns:rdf="http://www.w3.org/1999/02/22-rdf-syntax-ns#"
   xmlns:svg="http://www.w3.org/2000/svg"
   xmlns="http://www.w3.org/2000/svg"
   viewBox="0 0 1600 1600"
   height="1600"
   width="1600"
   xml:space="preserve"
   id="svg2"
   version="1.1"><metadata
     id="metadata8"><rdf:RDF><cc:Work
         rdf:about=""><dc:format>image/svg+xml</dc:format><dc:type
           rdf:resource="http://purl.org/dc/dcmitype/StillImage" /></cc:Work></rdf:RDF></metadata><defs
     id="defs6"><clipPath
       id="clipPath22"
       clipPathUnits="userSpaceOnUse"><path
         id="path20"
         d="M 0,1200 H 1200 V 0 H 0 Z" /></clipPath></defs><g
     transform="matrix(1.3333333,0,0,-1.3333333,0,1600)"
     id="g10"><text
       id="text14"
       style="font-variant:normal;font-weight:600;font-stretch:normal;font-size:189.66639709px;font-family:Omnes;-inkscape-font-specification:OmnesSemiBold;writing-mode:lr-tb;fill:#2e9183;fill-opacity:1;fill-rule:nonzero;stroke:none"
       transform="matrix(1,0,0,-0.98613513,217.3257,540.3369)"><tspan
         id="tspan12"
         y="0"
         x="0 101.66119 187.58006 224.18568 327.3642 420.30075 441.16403 537.51459 629.31311 727.93964 831.11816">Égide Saúde</tspan></text>
<g
       id="g16"><g
         clip-path="url(#clipPath22)"
         id="g18"><g
           transform="translate(47.2657,605.5563)"
           id="g24"><path
             id="path26"
             style="fill:#2e9183;fill-opacity:1;fill-rule:nonzero;stroke:none"
             d="M 0,0 C 0,-0.092 0,-0.184 0.005,-0.281 H 0 Z" /></g><g
           transform="translate(47.2657,612.5549)"
           id="g28"><path
             id="path30"
             style="fill:#2e9183;fill-opacity:1;fill-rule:nonzero;stroke:none"
             d="M 0,0 C 0,-0.491 0.049,-0.977 0.148,-1.442 V -1.463 C 0.06,-2.932 0.011,-4.417 0,-5.908 Z" /></g><g
           transform="translate(51.1653,668.2473)"
           id="g32"><path
             id="path34"
             style="fill:#2e9183;fill-opacity:1;fill-rule:nonzero;stroke:none"
             d="M 0,0 C 0.399,0.535 0.826,1.053 1.28,1.544 0.831,1.053 0.405,0.54 0,0" /></g><g
           transform="translate(58.9424,674.4845)"
           id="g36"><path
             id="path38"
             style="fill:#2e9183;fill-opacity:1;fill-rule:nonzero;stroke:none"
             d="M 0,0 C 0.897,0.41 1.827,0.745 2.784,1.021 1.81,0.686 0.886,0.351 0,0" /></g><g
           transform="translate(105.4018,616.9941)"
           id="g40"><path
             id="path42"
             style="fill:#2e9183;fill-opacity:1;fill-rule:nonzero;stroke:none"
             d="M 0,0 H -0.004 C 0,0.004 0,0.004 0,0.007 Z" /></g><g
           transform="translate(105.4018,588.7955)"
           id="g44"><path
             id="path46"
             style="fill:#2e9183;fill-opacity:1;fill-rule:nonzero;stroke:none"
             d="M 0,0 C 0,0.004 0,0.004 -0.004,0.007 H 0 Z" /></g><g
           transform="translate(133.9781,588.8029)"
           id="g48"><path
             id="path50"
             style="fill:#2e9183;fill-opacity:1;fill-rule:nonzero;stroke:none"
             d="M 0,0 H 0.004 C 0,-0.004 0,-0.004 0,-0.007 Z" /></g><g
           transform="translate(133.9781,617.0016)"
           id="g52"><path
             id="path54"
             style="fill:#2e9183;fill-opacity:1;fill-rule:nonzero;stroke:none"
             d="M 0,0 C 0,-0.004 0,-0.004 0.004,-0.007 H 0 Z" /></g><g
           transform="translate(158.59,593.56)"
           id="g56"><path
             id="path58"
             style="fill:#2e9183;fill-opacity:1;fill-rule:nonzero;stroke:none"
             d="M 0,0 C 0,-2.63 -2.16,-4.75 -4.83,-4.75 H -24.6 c 0,0 -0.01,0 -0.01,-0.01 h 1.56 c -0.86,0 -1.56,-0.69 -1.56,-1.53 v -17.98 c 0,-2.62 -2.16,-4.75 -4.82,-4.75 h -18.95 c -2.65,0 -4.81,2.12 -4.81,4.74 v 17.99 c 0,0.84 -0.7,1.53 -1.56,1.53 h 1.56 c 0,0.01 -0.01,0.01 -0.01,0.01 h -19.79 c -2.65,0 -4.81,2.12 -4.81,4.74 v 18.69 c 0,2.62 2.16,4.75 4.82,4.75 h 18.23 c 0.86,0 1.56,0.69 1.56,1.54 v 18.02 c 0,2.6 2.14,4.71 4.77,4.71 h 19 c 2.65,0 4.81,-2.13 4.81,-4.75 V 24.97 c 0,-0.85 0.7,-1.54 1.56,-1.54 H -4.77 C -2.14,23.43 0,21.32 0,18.72 Z m 33.53,63.01 c 0,2.05 -0.32,4.02 -0.91,5.88 -0.61,1.94 -1.52,3.75 -2.67,5.38 -0.29,0.41 -0.6,0.81 -0.92,1.2 -0.17,0.21 -0.34,0.41 -0.52,0.6 -0.06,0.07 -0.13,0.15 -0.19,0.22 l -0.06,0.06 c -0.15,0.16 -0.31,0.32 -0.46,0.48 -0.4,0.39 -0.82,0.78 -1.25,1.13 -0.08,0.08 -0.16,0.15 -0.24,0.22 -0.23,0.18 -0.45,0.36 -0.68,0.52 -0.25,0.19 -0.49,0.37 -0.74,0.54 h -0.01 c -0.26,0.17 -0.51,0.34 -0.77,0.49 -0.01,0.01 -0.02,0.02 -0.02,0.02 -0.12,0.07 -0.24,0.15 -0.36,0.21 -0.06,0.04 -0.13,0.07 -0.2,0.11 -0.02,0.01 -0.04,0.02 -0.06,0.04 -0.19,0.11 -0.4,0.2 -0.61,0.29 -1.49,0.64 -3.13,1.24 -4.91,1.83 h -0.02 c -8.25,2.7 -19.41,4.8 -32.28,5.99 -0.46,0.05 -0.93,0.09 -1.4,0.12 -0.02,0 -0.04,0.01 -0.06,0.01 -0.74,0.06 -1.49,0.12 -2.25,0.18 -0.61,0.05 -1.23,0.1 -1.85,0.14 -0.42,0.03 -0.85,0.06 -1.28,0.09 -0.51,0.03 -1.03,0.06 -1.55,0.09 -0.46,0.03 -0.94,0.05 -1.4,0.08 -0.22,0.01 -0.43,0.02 -0.65,0.03 -1.72,0.09 -3.46,0.16 -5.22,0.22 -0.98,0.03 -1.97,0.06 -2.97,0.08 -1,0.02 -2.01,0.04 -3.01,0.05 -1.01,0.01 -2.03,0.01 -3.04,0.01 -1.01,0 -2.01,0 -3.01,-0.01 -1,-0.01 -2,-0.03 -2.98,-0.05 -0.99,-0.02 -1.97,-0.05 -2.95,-0.08 -0.92,-0.03 -1.84,-0.06 -2.75,-0.1 -0.54,-0.02 -1.07,-0.04 -1.59,-0.07 -0.48,-0.02 -0.96,-0.05 -1.44,-0.07 -0.47,-0.02 -0.94,-0.05 -1.42,-0.08 -0.98,-0.05 -1.94,-0.11 -2.9,-0.18 -0.84,-0.06 -1.69,-0.12 -2.53,-0.19 -0.5,-0.04 -1,-0.08 -1.49,-0.12 -0.47,-0.04 -0.94,-0.09 -1.4,-0.13 -13.4,-1.23 -24.96,-3.43 -33.33,-6.28 -0.02,0 -0.03,-0.01 -0.04,-0.02 -0.49,-0.16 -0.97,-0.33 -1.43,-0.5 -0.4,-0.14 -0.79,-0.29 -1.17,-0.44 -0.06,-0.02 -0.13,-0.05 -0.19,-0.07 -0.21,-0.1 -0.41,-0.19 -0.61,-0.3 -0.2,-0.09 -0.39,-0.18 -0.58,-0.29 -0.39,-0.21 -0.78,-0.44 -1.16,-0.67 -0.13,-0.08 -0.26,-0.16 -0.38,-0.25 -0.63,-0.41 -1.25,-0.86 -1.83,-1.35 -0.17,-0.14 -0.34,-0.28 -0.51,-0.43 -0.16,-0.15 -0.32,-0.3 -0.49,-0.46 -0.16,-0.15 -0.32,-0.31 -0.48,-0.46 l -0.03,-0.04 c -0.14,-0.14 -0.28,-0.3 -0.43,-0.45 -0.16,-0.18 -0.33,-0.37 -0.49,-0.56 -0.1,-0.12 -0.21,-0.25 -0.31,-0.38 -0.06,-0.07 -0.11,-0.14 -0.17,-0.21 -0.1,-0.13 -0.2,-0.26 -0.3,-0.39 l -0.01,-0.01 c -0.13,-0.17 -0.26,-0.35 -0.38,-0.53 -1.19,-1.7 -2.11,-3.6 -2.7,-5.63 -0.52,-1.74 -0.8,-3.6 -0.8,-5.51 h -0.02 V 19 c 0,-0.06 0,-0.13 0.01,-0.19 0,-0.43 0.05,-0.85 0.14,-1.26 v -0.02 c -0.05,-0.73 -0.08,-1.47 -0.1,-2.21 -0.02,-0.59 -0.03,-1.19 -0.04,-1.78 -0.01,-0.15 -0.01,-0.3 -0.01,-0.45 v -1.1 c 0,-0.08 0,-0.18 0.01,-0.27 0.4,-41.41 31.06,-75.68 71.2,-82.27 0.78,-0.12 1.57,-0.12 2.35,0 40.14,6.59 70.8,40.86 71.2,82.27 h 0.09 v 44.01 c 0,0.96 -0.18,1.87 -0.53,2.71 0.31,1.28 0.49,2.61 0.53,3.96 0.01,0.2 0.01,0.41 0.01,0.61" /></g><g
           transform="translate(181.8566,673.7879)"
           id="g60"><path
             id="path62"
             style="fill:#2e9183;fill-opacity:1;fill-rule:nonzero;stroke:none"
             d="M 0,0 C 0.093,-0.049 0.181,-0.103 0.268,-0.157 0.055,-0.032 -0.175,0.076 -0.405,0.173 -1.898,0.81 -3.539,1.415 -5.316,1.998 -3.435,1.582 -1.646,0.907 0,0" /></g><g
           transform="translate(192.1113,655.9618)"
           id="g64"><path
             id="path66"
             style="fill:#2e9183;fill-opacity:1;fill-rule:nonzero;stroke:none"
             d="m 0,0 v -6.675 c 0,0.962 -0.186,1.874 -0.531,2.711 v 0.006 C -0.224,-2.684 -0.044,-1.355 0,0" /></g><g
           transform="translate(51.1653,668.2473)"
           id="g68"><path
             id="path70"
             style="fill:#2e9183;fill-opacity:1;fill-rule:nonzero;stroke:none"
             d="M 0,0 C 0.399,0.535 0.826,1.053 1.28,1.544 0.831,1.053 0.405,0.54 0,0" /></g><g
           transform="translate(61.7263,675.5051)"
           id="g72"><path
             id="path74"
             style="fill:#2e9183;fill-opacity:1;fill-rule:nonzero;stroke:none"
             d="M 0,0 C -0.974,-0.335 -1.898,-0.67 -2.784,-1.021 -1.887,-0.61 -0.957,-0.275 0,0" /></g><g
           transform="translate(182.2395,673.5718)"
           id="g76"><path
             id="path78"
             style="fill:#2e9183;fill-opacity:1;fill-rule:nonzero;stroke:none"
             d="M 0,0 C 0.148,-0.086 0.295,-0.173 0.438,-0.259 0.257,-0.146 0.071,-0.038 -0.115,0.059 -0.077,0.043 -0.038,0.022 0,0" /></g><g
           transform="translate(181.8566,673.7879)"
           id="g80"><path
             id="path82"
             style="fill:#2e9183;fill-opacity:1;fill-rule:nonzero;stroke:none"
             d="M 0,0 C 0.093,-0.049 0.181,-0.103 0.268,-0.157 0.055,-0.032 -0.175,0.076 -0.405,0.173 -1.898,0.81 -3.539,1.415 -5.316,1.998 -3.435,1.582 -1.646,0.907 0,0" /></g><g
           transform="translate(158.59,612.28)"
           id="g84"><path
             id="path86"
             style="fill:#ffffff;fill-opacity:1;fill-rule:nonzero;stroke:none"
             d="m 0,0 v -18.72 c 0,-2.63 -2.16,-4.75 -4.83,-4.75 H -24.6 c 0,0 -0.01,0 -0.01,-0.01 h 1.56 c -0.86,0 -1.56,-0.69 -1.56,-1.53 v -17.98 c 0,-2.62 -2.16,-4.75 -4.82,-4.75 h -18.95 c -2.65,0 -4.81,2.12 -4.81,4.74 v 17.99 c 0,0.84 -0.7,1.53 -1.56,1.53 h 1.56 c 0,0.01 -0.01,0.01 -0.01,0.01 h -19.79 c -2.65,0 -4.81,2.12 -4.81,4.74 v 18.69 c 0,2.62 2.16,4.75 4.82,4.75 h 18.23 c 0.86,0 1.56,0.69 1.56,1.54 v 18.02 c 0,2.6 2.14,4.71 4.77,4.71 h 19 c 2.65,0 4.81,-2.13 4.81,-4.75 V 6.25 c 0,-0.85 0.7,-1.54 1.56,-1.54 H -4.77 C -2.14,4.71 0,2.6 0,0" /></g><g
           transform="translate(158.59,593.56)"
           id="g88"><path
             id="path90"
             style="fill:#ffffff;fill-opacity:1;fill-rule:nonzero;stroke:none"
             d="M 0,0 C 0,-2.63 -2.16,-4.75 -4.83,-4.75 H -24.6 c 0,0 -0.01,0 -0.01,-0.01 h 1.56 c -0.86,0 -1.56,-0.69 -1.56,-1.53 v -17.98 c 0,-2.62 -2.16,-4.75 -4.82,-4.75 h -18.95 c -2.65,0 -4.81,2.12 -4.81,4.74 v 17.99 c 0,0.84 -0.7,1.53 -1.56,1.53 h 1.56 c 0,0.01 -0.01,0.01 -0.01,0.01 h -19.79 c -2.65,0 -4.81,2.12 -4.81,4.74 v 18.69 c 0,2.62 2.16,4.75 4.82,4.75 h 18.23 c 0.86,0 1.56,0.69 1.56,1.54 v 18.02 c 0,2.6 2.14,4.71 4.77,4.71 h 19 c 2.65,0 4.81,-2.13 4.81,-4.75 V 24.97 c 0,-0.85 0.7,-1.54 1.56,-1.54 H -4.77 C -2.14,23.43 0,21.32 0,18.72 Z" /></g></g></g></g></svg>